<svg width="100" height="100" viewBox="0 0 100 100" fill="none" xmlns="http://www.w3.org/2000/svg">
<path d="M18.75 18.75C18.75 15.4348 20.067 12.2554 22.4112 9.91119C24.7554 7.56699 27.9348 6.25003 31.25 6.25003C34.5652 6.25003 37.7446 7.56699 40.0888 9.91119C42.433 12.2554 43.75 15.4348 43.75 18.75C43.75 22.0652 42.433 25.2447 40.0888 27.5889C37.7446 29.9331 34.5652 31.25 31.25 31.25C27.9348 31.25 24.7554 29.9331 22.4112 27.5889C20.067 25.2447 18.75 22.0652 18.75 18.75V18.75ZM31.25 12.5C29.5924 12.5 28.0027 13.1585 26.8306 14.3306C25.6585 15.5027 25 17.0924 25 18.75C25 20.4076 25.6585 21.9973 26.8306 23.1694C28.0027 24.3415 29.5924 25 31.25 25C32.9076 25 34.4973 24.3415 35.6694 23.1694C36.8415 21.9973 37.5 20.4076 37.5 18.75C37.5 17.0924 36.8415 15.5027 35.6694 14.3306C34.4973 13.1585 32.9076 12.5 31.25 12.5V12.5ZM61.1188 28.65C59.8093 27.6512 58.7102 26.4035 57.8845 24.9786C57.0588 23.5537 56.5227 21.9797 56.3072 20.347C56.0917 18.7143 56.201 17.0551 56.6287 15.4648C57.0564 13.8744 57.7942 12.3843 58.7996 11.08C59.8051 9.77563 61.0583 8.68283 62.4874 7.86435C63.9165 7.04588 65.4932 6.51786 67.127 6.31065C68.7607 6.10343 70.4193 6.2211 72.0075 6.65689C73.5957 7.09268 75.082 7.838 76.3812 8.85003C78.9393 10.8963 80.5919 13.865 80.9834 17.1173C81.3749 20.3697 80.474 23.6457 78.4746 26.2406C76.4752 28.8355 73.5371 30.5418 70.2924 30.9924C67.0477 31.443 63.7558 30.6019 61.125 28.65H61.1188ZM68.75 12.5C67.0924 12.5 65.5027 13.1585 64.3306 14.3306C63.1585 15.5027 62.5 17.0924 62.5 18.75C62.5 20.4076 63.1585 21.9973 64.3306 23.1694C65.5027 24.3415 67.0924 25 68.75 25C70.4076 25 71.9973 24.3415 73.1694 23.1694C74.3415 21.9973 75 20.4076 75 18.75C75 17.0924 74.3415 15.5027 73.1694 14.3306C71.9973 13.1585 70.4076 12.5 68.75 12.5V12.5ZM15.625 37.5H32.3125C31.625 39.4563 31.25 41.5625 31.25 43.75H15.625C14.7962 43.75 14.0013 44.0793 13.4153 44.6653C12.8292 45.2514 12.5 46.0462 12.5 46.875C12.5 51.9813 14.5313 55.7688 17.7375 58.3438C19.2125 59.5313 20.9813 60.4875 22.9813 61.1875C21.5126 62.7487 20.3808 64.5953 19.6562 66.6125C17.5583 65.7698 15.5941 64.6266 13.825 63.2188C9.125 59.4375 6.25 53.85 6.25 46.875C6.25 44.3886 7.23772 42.0041 8.99587 40.2459C10.754 38.4877 13.1386 37.5 15.625 37.5V37.5ZM39.175 37.5C37.5174 40.3727 37.0688 43.7861 37.928 46.9895C38.7871 50.1928 40.8836 52.9237 43.7562 54.5813C46.6289 56.2389 50.0423 56.6874 53.2457 55.8283C56.449 54.9691 59.1799 52.8727 60.8375 50C62.4951 47.1274 62.9437 43.714 62.0845 40.5106C61.2254 37.3072 59.1289 34.5764 56.2563 32.9188C53.3836 31.2612 49.9702 30.8126 46.7668 31.6718C43.5635 32.5309 40.8326 34.6274 39.175 37.5V37.5ZM48.6 37.6563C49.5157 37.4494 50.4662 37.4509 51.3813 37.6606C52.2964 37.8702 53.1528 38.2828 53.8871 38.8677C54.6214 39.4526 55.215 40.195 55.6239 41.0401C56.0329 41.8851 56.2469 42.8112 56.25 43.75C56.2495 44.926 55.9173 46.078 55.2915 47.0736C54.6656 48.0692 53.7716 48.868 52.7122 49.3783C51.6527 49.8886 50.4708 50.0897 49.3022 49.9584C48.1336 49.8271 47.0257 49.3688 46.1059 48.6361C45.1861 47.9034 44.4916 46.926 44.1024 45.8164C43.7131 44.7067 43.6448 43.5098 43.9053 42.363C44.1658 41.2163 44.7445 40.1663 45.5749 39.3337C46.4054 38.5011 47.4539 37.9197 48.6 37.6563ZM82.2625 58.3438C80.7875 59.5313 79.0187 60.4875 77.0187 61.1875C78.4852 62.7492 79.6148 64.5958 80.3375 66.6125C82.4625 65.7438 84.4313 64.6125 86.175 63.2188C90.875 59.4375 93.75 53.85 93.75 46.875C93.75 44.3886 92.7623 42.0041 91.0041 40.2459C89.246 38.4877 86.8614 37.5 84.375 37.5H67.6875C68.375 39.4563 68.75 41.5625 68.75 43.75H84.375C85.2038 43.75 85.9987 44.0793 86.5847 44.6653C87.1708 45.2514 87.5 46.0462 87.5 46.875C87.5 51.9813 85.4687 55.7688 82.2625 58.3438V58.3438ZM65.625 62.5C68.1114 62.5 70.496 63.4877 72.2541 65.2459C74.0123 67.0041 75 69.3886 75 71.875C75 78.85 72.1313 84.4375 67.425 88.2188C62.7938 91.9375 56.5812 93.75 50 93.75C43.4188 93.75 37.2062 91.9375 32.575 88.2188C27.875 84.4375 25 78.85 25 71.875C24.9967 70.643 25.2369 69.4224 25.7069 68.2835C26.1769 67.1446 26.8673 66.1098 27.7385 65.2385C28.6097 64.3673 29.6445 63.6769 30.7834 63.2069C31.9224 62.737 33.1429 62.4967 34.375 62.5H65.625ZM65.625 68.75H34.375C33.5462 68.75 32.7513 69.0793 32.1653 69.6653C31.5792 70.2514 31.25 71.0462 31.25 71.875C31.25 76.9813 33.2812 80.7688 36.4875 83.3438C39.775 85.9813 44.5 87.5 50 87.5C55.5 87.5 60.225 85.9813 63.5125 83.3438C66.7187 80.7688 68.75 76.9813 68.75 71.875C68.75 71.0462 68.4208 70.2514 67.8347 69.6653C67.2487 69.0793 66.4538 68.75 65.625 68.75V68.75Z" fill="white"/>
</svg>
