<svg width="100" height="100" viewBox="0 0 100 100" fill="none" xmlns="http://www.w3.org/2000/svg">
<path d="M12.5 62.5C12.5 73.7688 22.2188 85.3313 38.8875 87.2313C37.0936 85.0167 35.582 82.5876 34.3875 80C24.2625 77.0813 18.75 69.55 18.75 62.5V59.375C18.75 58.5462 19.0792 57.7514 19.6653 57.1653C20.2513 56.5793 21.0462 56.25 21.875 56.25H32.5437C33.1625 54.0688 33.9812 51.9813 35 50H21.875C19.3886 50 17.004 50.9877 15.2459 52.7459C13.4877 54.504 12.5 56.8886 12.5 59.375V62.5ZM60.9375 26.5625C60.9375 28.3438 60.6688 30.0625 60.1625 31.6875C57.1752 32.1626 54.2642 33.0327 51.5063 34.275C53.364 32.4011 54.4817 29.9188 54.6532 27.2857C54.8248 24.6526 54.0386 22.0462 52.4397 19.9471C50.8409 17.848 48.537 16.3977 45.953 15.8636C43.3689 15.3294 40.6789 15.7474 38.3788 17.0405C36.0787 18.3337 34.3236 20.4147 33.4371 22.9C32.5506 25.3853 32.5924 28.1073 33.5549 30.5642C34.5174 33.0211 36.3357 35.0472 38.6744 36.269C41.0132 37.4908 43.7148 37.8259 46.2813 37.2125C43.7818 38.9153 41.5166 40.9389 39.5438 43.2313C36.421 42.4446 33.5819 40.7968 31.3499 38.4755C29.1179 36.1542 27.5827 33.2527 26.919 30.1015C26.2554 26.9504 26.4901 23.6762 27.5964 20.6518C28.7026 17.6275 30.636 14.9747 33.1763 12.9954C35.7166 11.0162 38.7616 9.79015 41.9646 9.45693C45.1677 9.12371 48.3999 9.69671 51.2932 11.1107C54.1864 12.5246 56.6245 14.7227 58.3296 17.4546C60.0346 20.1864 60.9383 23.3422 60.9375 26.5625V26.5625ZM65.625 49.2188C64.589 49.2188 63.5954 49.6303 62.8629 50.3629C62.1303 51.0954 61.7188 52.089 61.7188 53.125C61.7188 54.161 62.1303 55.1546 62.8629 55.8872C63.5954 56.6197 64.589 57.0313 65.625 57.0313C66.661 57.0313 67.6546 56.6197 68.3871 55.8872C69.1197 55.1546 69.5312 54.161 69.5312 53.125C69.5312 52.089 69.1197 51.0954 68.3871 50.3629C67.6546 49.6303 66.661 49.2188 65.625 49.2188ZM65.625 81.25C66.4538 81.25 67.2487 80.9208 67.8347 80.3347C68.4208 79.7487 68.75 78.9538 68.75 78.125V65.625C68.75 64.7962 68.4208 64.0014 67.8347 63.4153C67.2487 62.8293 66.4538 62.5 65.625 62.5C64.7962 62.5 64.0013 62.8293 63.4153 63.4153C62.8292 64.0014 62.5 64.7962 62.5 65.625V78.125C62.5 78.9538 62.8292 79.7487 63.4153 80.3347C64.0013 80.9208 64.7962 81.25 65.625 81.25ZM65.625 37.5C61.9316 37.5 58.2743 38.2275 54.862 39.6409C51.4497 41.0543 48.3493 43.126 45.7376 45.7376C43.126 48.3493 41.0543 51.4498 39.6409 54.862C38.2275 58.2743 37.5 61.9316 37.5 65.625C37.5 69.3184 38.2275 72.9757 39.6409 76.388C41.0543 79.8003 43.126 82.9007 45.7376 85.5124C48.3493 88.124 51.4497 90.1957 54.862 91.6091C58.2743 93.0225 61.9316 93.75 65.625 93.75C73.0842 93.75 80.2379 90.7868 85.5124 85.5124C90.7868 80.2379 93.75 73.0842 93.75 65.625C93.75 58.1658 90.7868 51.0121 85.5124 45.7376C80.2379 40.4632 73.0842 37.5 65.625 37.5V37.5ZM65.625 43.75C71.4266 43.75 76.9906 46.0547 81.093 50.1571C85.1953 54.2594 87.5 59.8234 87.5 65.625C87.5 71.4266 85.1953 76.9906 81.093 81.093C76.9906 85.1953 71.4266 87.5 65.625 87.5C59.8234 87.5 54.2594 85.1953 50.157 81.093C46.0547 76.9906 43.75 71.4266 43.75 65.625C43.75 59.8234 46.0547 54.2594 50.157 50.1571C54.2594 46.0547 59.8234 43.75 65.625 43.75V43.75Z" fill="white"/>
</svg>
