<svg width="100" height="100" viewBox="0 0 100 100" fill="none" xmlns="http://www.w3.org/2000/svg">
<path d="M49.6245 58.3292L82.3037 58.3334C84.7901 58.3334 87.1747 59.3211 88.9328 61.0792C90.691 62.8374 91.6787 65.2219 91.6787 67.7084V71.4792C91.6787 73.7308 91.192 75.9558 90.2521 78.0018C89.3121 80.0478 87.9411 81.8665 86.2329 83.3333C79.7079 88.9375 70.3745 91.675 58.3329 91.675H57.587C58.0669 90.7048 58.3255 89.6402 58.3442 88.558C58.3629 87.4758 58.1413 86.4029 57.6954 85.4167L58.3329 85.425C68.9995 85.425 76.9079 83.1084 82.162 78.5959C83.1868 77.7157 84.0093 76.6244 84.5731 75.3968C85.1369 74.1692 85.4288 72.8342 85.4287 71.4834V67.7125C85.4287 66.8837 85.0995 66.0889 84.5134 65.5028C83.9274 64.9168 83.1325 64.5875 82.3037 64.5875H49.9037C50.0938 62.4998 49.9999 60.3959 49.6245 58.3334V58.3292ZM27.0829 43.75C30.6448 43.7502 34.133 44.7649 37.1392 46.6754C40.1453 48.5859 42.5451 51.3132 44.0577 54.538C45.5702 57.7629 46.1329 61.3518 45.6798 64.8848C45.2268 68.4178 43.7768 71.7487 41.4995 74.4875L53.262 86.2125C53.8174 86.7702 54.1419 87.5168 54.1707 88.3033C54.1995 89.0898 53.9305 89.8582 53.4174 90.455C52.9043 91.0518 52.1849 91.433 51.403 91.5224C50.621 91.6119 49.8341 91.403 49.1995 90.9375L48.8454 90.6375L36.7495 78.5709C34.2728 80.0594 31.4856 80.9553 28.6055 81.1887C25.7253 81.4222 22.8302 80.9868 20.1461 79.9165C17.4621 78.8463 15.0617 77.1701 13.1324 75.019C11.2031 72.8678 9.79704 70.2998 9.02409 67.5155C8.25114 64.7313 8.13217 61.806 8.67647 58.9681C9.22077 56.1303 10.4136 53.4566 12.1619 51.1559C13.9101 48.8552 16.1665 46.9897 18.7548 45.705C21.3431 44.4203 24.1933 43.7512 27.0829 43.75V43.75ZM27.0829 50C23.7677 50 20.5882 51.317 18.244 53.6612C15.8998 56.0054 14.5829 59.1848 14.5829 62.5C14.5829 65.8152 15.8998 68.9946 18.244 71.3389C20.5882 73.6831 23.7677 75 27.0829 75C30.3981 75 33.5775 73.6831 35.9217 71.3389C38.2659 68.9946 39.5829 65.8152 39.5829 62.5C39.5829 59.1848 38.2659 56.0054 35.9217 53.6612C33.5775 51.317 30.3981 50 27.0829 50ZM58.3329 8.35419C61.0687 8.35419 63.7778 8.89306 66.3054 9.94003C68.8331 10.987 71.1297 12.5216 73.0643 14.4561C74.9988 16.3907 76.5334 18.6873 77.5804 21.2149C78.6273 23.7426 79.1662 26.4516 79.1662 29.1875C79.1662 31.9234 78.6273 34.6325 77.5804 37.1601C76.5334 39.6877 74.9988 41.9844 73.0643 43.9189C71.1297 45.8535 68.8331 47.388 66.3054 48.435C63.7778 49.482 61.0687 50.0209 58.3329 50.0209C52.8075 50.0209 47.5085 47.8259 43.6015 43.9189C39.6945 40.0119 37.4995 34.7129 37.4995 29.1875C37.4995 23.6622 39.6945 18.3631 43.6015 14.4561C47.5085 10.5491 52.8075 8.35419 58.3329 8.35419ZM58.3329 14.6042C56.4178 14.6042 54.5214 14.9814 52.7521 15.7143C50.9827 16.4472 49.3751 17.5214 48.0209 18.8755C46.6667 20.2297 45.5925 21.8374 44.8596 23.6067C44.1267 25.3761 43.7495 27.2724 43.7495 29.1875C43.7495 31.1026 44.1267 32.999 44.8596 34.7683C45.5925 36.5376 46.6667 38.1453 48.0209 39.4995C49.3751 40.8537 50.9827 41.9279 52.7521 42.6608C54.5214 43.3936 56.4178 43.7709 58.3329 43.7709C62.2006 43.7709 65.9099 42.2344 68.6448 39.4995C71.3797 36.7646 72.9162 33.0553 72.9162 29.1875C72.9162 25.3198 71.3797 21.6105 68.6448 18.8755C65.9099 16.1406 62.2006 14.6042 58.3329 14.6042V14.6042Z" fill="white"/>
</svg>
