<svg width="24" height="24" viewBox="0 0 24 24" fill="none" xmlns="http://www.w3.org/2000/svg">
<path d="M8.11991 9.29007L11.9999 13.1701L15.8799 9.29007C15.9725 9.19749 16.0824 9.12405 16.2034 9.07394C16.3243 9.02384 16.454 8.99805 16.5849 8.99805C16.7158 8.99805 16.8455 9.02384 16.9665 9.07394C17.0874 9.12405 17.1973 9.19749 17.2899 9.29007C17.3825 9.38265 17.4559 9.49256 17.506 9.61352C17.5561 9.73449 17.5819 9.86414 17.5819 9.99507C17.5819 10.126 17.5561 10.2556 17.506 10.3766C17.4559 10.4976 17.3825 10.6075 17.2899 10.7001L12.6999 15.2901C12.6074 15.3828 12.4975 15.4563 12.3765 15.5065C12.2556 15.5567 12.1259 15.5825 11.9949 15.5825C11.8639 15.5825 11.7343 15.5567 11.6133 15.5065C11.4923 15.4563 11.3824 15.3828 11.2899 15.2901L6.69991 10.7001C6.60721 10.6076 6.53366 10.4977 6.48348 10.3767C6.4333 10.2557 6.40747 10.126 6.40747 9.99507C6.40747 9.8641 6.4333 9.73442 6.48348 9.61344C6.53366 9.49247 6.60721 9.38258 6.69991 9.29007C7.08991 8.91007 7.72991 8.90007 8.11991 9.29007Z" fill="#333333" fill-opacity="0.5"/>
</svg>
