<svg width="50" height="50" viewBox="0 0 100 100" fill="none" xmlns="http://www.w3.org/2000/svg">
<path d="M16.6667 83.3334C14.375 83.3334 12.4139 82.5181 10.7834 80.8876C9.15004 79.2542 8.33337 77.2917 8.33337 75.0001V58.3334C10.625 58.3334 12.5875 57.5167 14.2209 55.8834C15.8514 54.2529 16.6667 52.2917 16.6667 50.0001C16.6667 47.7084 15.8514 45.7459 14.2209 44.1126C12.5875 42.482 10.625 41.6667 8.33337 41.6667V25.0001C8.33337 22.7084 9.15004 20.7473 10.7834 19.1167C12.4139 17.4834 14.375 16.6667 16.6667 16.6667H83.3334C85.625 16.6667 87.5875 17.4834 89.2209 19.1167C90.8514 20.7473 91.6667 22.7084 91.6667 25.0001V75.0001C91.6667 77.2917 90.8514 79.2542 89.2209 80.8876C87.5875 82.5181 85.625 83.3334 83.3334 83.3334H16.6667ZM16.6667 75.0001H83.3334V25.0001H16.6667V35.6251C19.2362 37.1529 21.2681 39.1834 22.7625 41.7167C24.2542 44.2529 25 47.014 25 50.0001C25 52.9862 24.2542 55.7473 22.7625 58.2834C21.2681 60.8167 19.2362 62.8473 16.6667 64.3751V75.0001ZM36.875 65.2084L73.9584 55.4167C75 55.139 75.7806 54.4959 76.3 53.4876C76.8223 52.482 76.9445 51.4584 76.6667 50.4167C76.3889 49.3751 75.7806 48.5931 74.8417 48.0709C73.9056 47.5515 72.9167 47.4306 71.875 47.7084L61.6667 50.4167L45 34.7917L39.1667 36.2501L49.1667 53.7501L39.1667 56.2501L33.9584 52.2917L30 53.3334L36.875 65.2084Z" fill="black"/>
</svg>
