<svg width="50" height="50" viewBox="0 0 100 100" fill="none" xmlns="http://www.w3.org/2000/svg">
<path d="M90.4583 84.5418L75 69.2084C81.0004 61.7268 83.9062 52.2305 83.12 42.6722C82.3338 33.1138 77.9153 24.22 70.773 17.8194C63.6307 11.4189 54.3075 7.99805 44.7205 8.26038C35.1335 8.52272 26.0113 12.4483 19.2297 19.2298C12.4481 26.0114 8.5226 35.1336 8.26026 44.7206C7.99793 54.3076 11.4187 63.6308 17.8193 70.7731C24.2199 77.9154 33.1137 82.3339 42.6721 83.1201C52.2304 83.9063 61.7267 81.0005 69.2083 75.0001L84.5416 90.3334C84.929 90.724 85.3898 91.0339 85.8976 91.2455C86.4053 91.457 86.9499 91.5659 87.5 91.5659C88.05 91.5659 88.5946 91.457 89.1024 91.2455C89.6101 91.0339 90.0709 90.724 90.4583 90.3334C91.2093 89.5565 91.6291 88.5182 91.6291 87.4376C91.6291 86.357 91.2093 85.3187 90.4583 84.5418ZM45.8333 75.0001C40.0647 75.0001 34.4256 73.2895 29.6292 70.0846C24.8327 66.8797 21.0944 62.3245 18.8868 56.995C16.6793 51.6655 16.1017 45.8011 17.2271 40.1433C18.3525 34.4855 21.1303 29.2885 25.2094 25.2095C29.2884 21.1304 34.4854 18.3526 40.1432 17.2272C45.8009 16.1018 51.6654 16.6794 56.9949 18.8869C62.3244 21.0945 66.8796 24.8329 70.0845 29.6293C73.2894 34.4257 75 40.0648 75 45.8334C75 53.5689 71.9271 60.9876 66.4572 66.4574C60.9874 71.9272 53.5688 75.0001 45.8333 75.0001Z" fill="#333333"/>
</svg>
