<svg width="100" height="100" viewBox="0 0 100 100" fill="none" xmlns="http://www.w3.org/2000/svg">
<path d="M57.7344 14.4141C57.8931 13.8189 58.1675 13.2607 58.5421 12.7716C58.9166 12.2825 59.3839 11.8721 59.9172 11.5637C60.4505 11.2553 61.0394 11.0551 61.6501 10.9745C62.2609 10.8938 62.8815 10.9344 63.4766 11.0938C69.5701 12.7361 75.1258 15.9492 79.5883 20.4117C84.0509 24.8742 87.2639 30.4299 88.9062 36.5235C89.0657 37.1185 89.1062 37.7392 89.0256 38.3499C88.9449 38.9606 88.7447 39.5495 88.4363 40.0828C88.128 40.6161 87.7175 41.0834 87.2284 41.4579C86.7393 41.8325 86.1812 42.107 85.5859 42.2657C85.1918 42.3751 84.784 42.4277 84.375 42.4219C83.3439 42.416 82.343 42.0731 81.5249 41.4454C80.7068 40.8177 80.1164 39.9398 79.8438 38.9453C78.6374 34.4395 76.2658 30.3309 72.9675 27.0326C69.6692 23.7343 65.5605 21.3626 61.0547 20.1563C60.4594 19.9976 59.9013 19.7231 59.4122 19.3486C58.9231 18.974 58.5127 18.5067 58.2043 17.9734C57.8959 17.4401 57.6957 16.8513 57.6151 16.2405C57.5344 15.6298 57.575 15.0092 57.7344 14.4141ZM91.9922 68.5938C91.2701 74.2486 88.5118 79.4464 84.2336 83.214C79.9554 86.9817 74.4507 89.061 68.75 89.0625C36.875 89.0625 10.9375 63.125 10.9375 31.25C10.9391 25.5493 13.0183 20.0446 16.786 15.7664C20.5537 11.4883 25.7515 8.72994 31.4062 8.00785C33.0863 7.79774 34.7889 8.14188 36.2555 8.98796C37.722 9.83404 38.8722 11.1358 39.5312 12.6954L47.3828 30.9766C47.9013 32.162 48.1156 33.4581 48.0065 34.7473C47.8974 36.0365 47.4682 37.278 46.7578 38.3594L40.7422 47.5C43.4072 52.5362 47.5331 56.6486 52.5781 59.2969L61.6016 53.2813C62.6869 52.5645 63.9333 52.1286 65.2287 52.0127C66.5242 51.8968 67.8281 52.1045 69.0234 52.6172L87.3047 60.4688C88.8643 61.1278 90.166 62.278 91.0121 63.7446C91.8582 65.2111 92.2023 66.9138 91.9922 68.5938ZM82.5 68.5938L66.0938 61.5625L57.0312 67.6172C55.9041 68.363 54.6035 68.8052 53.2554 68.901C51.9073 68.9968 50.5572 68.743 49.3359 68.1641C41.7537 64.4921 35.6201 58.386 31.9141 50.8204C31.3181 49.6054 31.0513 48.2552 31.1404 46.9049C31.2295 45.5545 31.6714 44.2512 32.4219 43.125L38.4375 33.9063L31.4062 17.5C28.264 18.1787 25.4491 19.9135 23.4305 22.4154C21.4119 24.9173 20.3115 28.0353 20.3125 31.25C20.3228 44.0933 25.4294 56.4076 34.5109 65.4891C43.5925 74.5706 55.9067 79.6772 68.75 79.6875C71.9647 79.6886 75.0827 78.5881 77.5846 76.5695C80.0866 74.5509 81.8213 71.736 82.5 68.5938ZM56.875 34.961C58.7966 35.5563 60.5443 36.6108 61.9668 38.0333C63.3893 39.4558 64.4438 41.2034 65.0391 43.125C65.3447 44.0767 65.9442 44.907 66.7513 45.4965C67.5584 46.0861 68.5317 46.4046 69.5312 46.4063C70.0096 46.4049 70.4846 46.3257 70.9375 46.1719C71.5239 45.9897 72.0684 45.6931 72.5395 45.2993C73.0107 44.9055 73.3991 44.4222 73.6824 43.8774C73.9657 43.3326 74.1382 42.737 74.1901 42.1252C74.2419 41.5133 74.172 40.8972 73.9844 40.3125C72.9333 36.9519 71.0838 33.8959 68.5939 31.4061C66.1041 28.9163 63.0481 27.0667 59.6875 26.0157C58.5013 25.6427 57.2155 25.7562 56.113 26.3313C55.0105 26.9064 54.1816 27.8958 53.8086 29.0821C53.4356 30.2683 53.5492 31.5541 54.1242 32.6566C54.6993 33.7591 55.6888 34.588 56.875 34.961Z" fill="black"/>
</svg>
