<svg width="100" height="100" viewBox="0 0 100 100" fill="none" xmlns="http://www.w3.org/2000/svg">
<path d="M12.5 79.1667C11.3194 79.1667 10.3305 78.7667 9.53331 77.9667C8.73331 77.1695 8.33331 76.1806 8.33331 75.0001C8.33331 73.8195 8.73331 72.8306 9.53331 72.0334C10.3305 71.2334 11.3194 70.8334 12.5 70.8334H87.5C88.6805 70.8334 89.6694 71.2334 90.4666 72.0334C91.2666 72.8306 91.6666 73.8195 91.6666 75.0001C91.6666 76.1806 91.2666 77.1695 90.4666 77.9667C89.6694 78.7667 88.6805 79.1667 87.5 79.1667H12.5ZM12.5 66.6667V62.5001C12.5 53.6112 15.2264 45.764 20.6791 38.9584C26.1291 32.1529 33.125 27.8473 41.6666 26.0417V25.0001C41.6666 22.7084 42.4833 20.7473 44.1166 19.1167C45.7472 17.4834 47.7083 16.6667 50 16.6667C52.2916 16.6667 54.2541 17.4834 55.8875 19.1167C57.518 20.7473 58.3333 22.7084 58.3333 25.0001V26.0417C66.9444 27.8473 73.9583 32.1529 79.375 38.9584C84.7916 45.764 87.5 53.6112 87.5 62.5001V66.6667H12.5ZM21.0416 58.3334H78.9583C77.9861 51.1112 74.7569 45.139 69.2708 40.4167C63.7847 35.6945 57.3611 33.3334 50 33.3334C42.6389 33.3334 36.2333 35.6945 30.7833 40.4167C25.3305 45.139 22.0833 51.1112 21.0416 58.3334Z" fill="black"/>
</svg>
