<svg width="100" height="100" viewBox="0 0 100 100" fill="none" xmlns="http://www.w3.org/2000/svg">
<path d="M27.0833 87.4999C25.3472 87.4999 23.8722 86.8916 22.6583 85.6749C21.4416 84.461 20.8333 82.986 20.8333 81.2499V74.7916C19.5833 73.4027 18.5763 71.8569 17.8125 70.1541C17.0486 68.4541 16.6666 66.5971 16.6666 64.5832V24.9999C16.6666 19.236 19.3402 15.0166 24.6875 12.3416C30.0347 9.66936 38.4722 8.33325 50 8.33325C61.9444 8.33325 70.4861 9.61797 75.625 12.1874C80.7638 14.7569 83.3333 19.0277 83.3333 24.9999V64.5832C83.3333 66.5971 82.9513 68.4541 82.1875 70.1541C81.4236 71.8569 80.4166 73.4027 79.1666 74.7916V81.2499C79.1666 82.986 78.5583 84.461 77.3416 85.6749C76.1277 86.8916 74.6527 87.4999 72.9166 87.4999C71.1805 87.4999 69.7055 86.8916 68.4916 85.6749C67.275 84.461 66.6666 82.986 66.6666 81.2499V79.1666H33.3333V81.2499C33.3333 82.986 32.725 84.461 31.5083 85.6749C30.2944 86.8916 28.8194 87.4999 27.0833 87.4999ZM50.2083 20.8333H73.5416H26.875H50.2083ZM66.6666 49.9999H25H75H66.6666ZM25 41.6666H75V29.1666H25V41.6666ZM35.4166 66.6666C37.1527 66.6666 38.6277 66.0583 39.8416 64.8416C41.0583 63.6277 41.6666 62.1527 41.6666 60.4166C41.6666 58.6805 41.0583 57.2055 39.8416 55.9916C38.6277 54.7749 37.1527 54.1666 35.4166 54.1666C33.6805 54.1666 32.2055 54.7749 30.9916 55.9916C29.775 57.2055 29.1666 58.6805 29.1666 60.4166C29.1666 62.1527 29.775 63.6277 30.9916 64.8416C32.2055 66.0583 33.6805 66.6666 35.4166 66.6666ZM64.5833 66.6666C66.3194 66.6666 67.7944 66.0583 69.0083 64.8416C70.225 63.6277 70.8333 62.1527 70.8333 60.4166C70.8333 58.6805 70.225 57.2055 69.0083 55.9916C67.7944 54.7749 66.3194 54.1666 64.5833 54.1666C62.8472 54.1666 61.3722 54.7749 60.1583 55.9916C58.9416 57.2055 58.3333 58.6805 58.3333 60.4166C58.3333 62.1527 58.9416 63.6277 60.1583 64.8416C61.3722 66.0583 62.8472 66.6666 64.5833 66.6666ZM26.875 20.8333H73.5416C72.5 19.6527 70.2611 18.6624 66.825 17.8624C63.3861 17.0652 57.8472 16.6666 50.2083 16.6666C42.7777 16.6666 37.343 17.0999 33.9041 17.9666C30.468 18.836 28.125 19.7916 26.875 20.8333ZM33.3333 70.8332H66.6666C68.9583 70.8332 70.9208 70.018 72.5541 68.3874C74.1847 66.7541 75 64.7916 75 62.4999V49.9999H25V62.4999C25 64.7916 25.8166 66.7541 27.45 68.3874C29.0805 70.018 31.0416 70.8332 33.3333 70.8332Z" fill="black"/>
</svg>
