<svg width="50" height="50" viewBox="0 0 100 100" fill="none" xmlns="http://www.w3.org/2000/svg">
<path d="M8.33337 75.0001V41.6667C8.33337 39.3751 9.15004 37.4126 10.7834 35.7792C12.4139 34.1487 14.375 33.3334 16.6667 33.3334H29.1667V25.0001C29.1667 22.7084 29.9834 20.7473 31.6167 19.1167C33.2473 17.4834 35.2084 16.6667 37.5 16.6667H62.5C64.7917 16.6667 66.7542 17.4834 68.3875 19.1167C70.0181 20.7473 70.8334 22.7084 70.8334 25.0001V33.3334H83.3334C85.625 33.3334 87.5875 34.1487 89.2209 35.7792C90.8514 37.4126 91.6667 39.3751 91.6667 41.6667V75.0001C91.6667 77.2917 90.8514 79.2542 89.2209 80.8876C87.5875 82.5181 85.625 83.3334 83.3334 83.3334H16.6667C14.375 83.3334 12.4139 82.5181 10.7834 80.8876C9.15004 79.2542 8.33337 77.2917 8.33337 75.0001ZM16.6667 75.0001H83.3334V62.5001H75C75 63.6806 74.6 64.6695 73.8 65.4667C73.0028 66.2667 72.0139 66.6667 70.8334 66.6667C69.6528 66.6667 68.6639 66.2667 67.8667 65.4667C67.0667 64.6695 66.6667 63.6806 66.6667 62.5001H33.3334C33.3334 63.6806 32.9348 64.6695 32.1375 65.4667C31.3375 66.2667 30.3473 66.6667 29.1667 66.6667C27.9862 66.6667 26.9959 66.2667 26.1959 65.4667C25.3987 64.6695 25 63.6806 25 62.5001H16.6667V75.0001ZM16.6667 41.6667V54.1667H25C25 52.9862 25.3987 51.9959 26.1959 51.1959C26.9959 50.3987 27.9862 50.0001 29.1667 50.0001C30.3473 50.0001 31.3375 50.3987 32.1375 51.1959C32.9348 51.9959 33.3334 52.9862 33.3334 54.1667H66.6667C66.6667 52.9862 67.0667 51.9959 67.8667 51.1959C68.6639 50.3987 69.6528 50.0001 70.8334 50.0001C72.0139 50.0001 73.0028 50.3987 73.8 51.1959C74.6 51.9959 75 52.9862 75 54.1667H83.3334V41.6667H16.6667ZM37.5 33.3334H62.5V25.0001H37.5V33.3334Z" fill="#333333"/>
</svg>
