<svg width="100" height="100" viewBox="0 0 100 100" fill="none" xmlns="http://www.w3.org/2000/svg">
<path d="M66.6667 45.8333H62.5V12.5C62.5 7.91663 58.75 4.16663 54.1667 4.16663H45.8333C41.25 4.16663 37.5 7.91663 37.5 12.5V45.8333H33.3333C21.8333 45.8333 12.5 55.1666 12.5 66.6666V95.8333H87.5V66.6666C87.5 55.1666 78.1667 45.8333 66.6667 45.8333ZM45.8333 12.5H54.1667V45.8333H45.8333V12.5ZM79.1667 87.5H70.8333V75C70.8333 72.7083 68.9583 70.8333 66.6667 70.8333C64.375 70.8333 62.5 72.7083 62.5 75V87.5H54.1667V75C54.1667 72.7083 52.2917 70.8333 50 70.8333C47.7083 70.8333 45.8333 72.7083 45.8333 75V87.5H37.5V75C37.5 72.7083 35.625 70.8333 33.3333 70.8333C31.0417 70.8333 29.1667 72.7083 29.1667 75V87.5H20.8333V66.6666C20.8333 59.7916 26.4583 54.1666 33.3333 54.1666H66.6667C73.5417 54.1666 79.1667 59.7916 79.1667 66.6666V87.5Z" fill="black"/>
</svg>
