<svg width="100" height="100" viewBox="0 0 100 100" fill="none" xmlns="http://www.w3.org/2000/svg">
<path d="M98.4375 84.375C98.4375 85.6182 97.9436 86.8105 97.0646 87.6896C96.1855 88.5687 94.9932 89.0625 93.75 89.0625H37.5C36.2568 89.0625 35.0645 88.5687 34.1854 87.6896C33.3064 86.8105 32.8125 85.6182 32.8125 84.375C32.8125 83.1318 33.3064 81.9395 34.1854 81.0605C35.0645 80.1814 36.2568 79.6875 37.5 79.6875H93.75C94.9932 79.6875 96.1855 80.1814 97.0646 81.0605C97.9436 81.9395 98.4375 83.1318 98.4375 84.375ZM86.25 76.4063L17.2266 57.0703C13.6189 56.0502 10.4426 53.8809 8.1796 50.8918C5.91662 47.9027 4.69056 44.2569 4.6875 40.5078V19.961C4.68638 18.7233 4.97932 17.5031 5.54218 16.4008C6.10505 15.2986 6.92174 14.3458 7.92498 13.6211C8.92821 12.8963 10.0893 12.4202 11.3126 12.2321C12.5358 12.044 13.7863 12.1492 14.9609 12.5391L20.2344 14.2969C21.3765 14.6854 22.3268 15.496 22.8906 16.5625L28.2422 26.5625L32.8125 28.0078V19.961C32.8114 18.7233 33.1043 17.5031 33.6672 16.4008C34.23 15.2986 35.0467 14.3458 36.05 13.6211C37.0532 12.8963 38.2143 12.4202 39.4376 12.2321C40.6608 12.044 41.9113 12.1492 43.0859 12.5391L48.3594 14.2969C49.4517 14.6541 50.3711 15.4063 50.9375 16.4063L62.5 36.6406L79.6094 41.3672C83.221 42.386 86.4024 44.5537 88.672 47.5422C90.9415 50.5306 92.1756 54.1772 92.1875 57.9297V71.875C92.1927 72.492 92.075 73.1039 91.8413 73.675C91.6076 74.2461 91.2625 74.7649 90.8262 75.2012C90.3899 75.6375 89.871 75.9826 89.3 76.2163C88.7289 76.45 88.117 76.5677 87.5 76.5625C87.078 76.571 86.657 76.5184 86.25 76.4063ZM82.8125 57.9297C82.8141 56.2276 82.257 54.572 81.2267 53.2172C80.1965 51.8623 78.75 50.883 77.1094 50.4297L58.125 45.1563C56.9418 44.8145 55.935 44.0314 55.3125 42.9688L43.7109 22.6172L42.1875 22.1094V34.375C42.186 35.1121 42.0121 35.8386 41.6798 36.4965C41.3474 37.1544 40.8658 37.7255 40.2734 38.1641C39.6769 38.5931 38.9899 38.8795 38.2653 39.0014C37.5407 39.1233 36.7978 39.0774 36.0938 38.8672L23.5938 34.961C22.4217 34.5696 21.4435 33.7452 20.8594 32.6563L15.5078 22.6172L14.0625 22.1094V40.5078C14.0589 42.215 14.6145 43.8763 15.6444 45.2378C16.6743 46.5993 18.1219 47.586 19.7656 48.0469L82.8125 65.7031V57.9297Z" fill="black"/>
</svg>
