<svg width="50" height="50" viewBox="0 0 100 100" fill="none" xmlns="http://www.w3.org/2000/svg">
<path d="M33.3333 70.8333C34.5139 70.8333 35.5042 70.4333 36.3042 69.6333C37.1014 68.8361 37.5 67.8472 37.5 66.6667C37.5 65.4861 37.1014 64.4958 36.3042 63.6958C35.5042 62.8986 34.5139 62.5 33.3333 62.5C32.1528 62.5 31.1625 62.8986 30.3625 63.6958C29.5653 64.4958 29.1667 65.4861 29.1667 66.6667C29.1667 67.8472 29.5653 68.8361 30.3625 69.6333C31.1625 70.4333 32.1528 70.8333 33.3333 70.8333ZM33.3333 54.1667C34.5139 54.1667 35.5042 53.7667 36.3042 52.9667C37.1014 52.1694 37.5 51.1806 37.5 50C37.5 48.8194 37.1014 47.8292 36.3042 47.0292C35.5042 46.2319 34.5139 45.8333 33.3333 45.8333C32.1528 45.8333 31.1625 46.2319 30.3625 47.0292C29.5653 47.8292 29.1667 48.8194 29.1667 50C29.1667 51.1806 29.5653 52.1694 30.3625 52.9667C31.1625 53.7667 32.1528 54.1667 33.3333 54.1667ZM33.3333 37.5C34.5139 37.5 35.5042 37.1 36.3042 36.3C37.1014 35.5028 37.5 34.5139 37.5 33.3333C37.5 32.1528 37.1014 31.1625 36.3042 30.3625C35.5042 29.5653 34.5139 29.1667 33.3333 29.1667C32.1528 29.1667 31.1625 29.5653 30.3625 30.3625C29.5653 31.1625 29.1667 32.1528 29.1667 33.3333C29.1667 34.5139 29.5653 35.5028 30.3625 36.3C31.1625 37.1 32.1528 37.5 33.3333 37.5ZM45.8333 70.8333H70.8333V62.5H45.8333V70.8333ZM45.8333 54.1667H70.8333V45.8333H45.8333V54.1667ZM45.8333 37.5H70.8333V29.1667H45.8333V37.5ZM20.8333 87.5C18.5417 87.5 16.5792 86.6847 14.9458 85.0542C13.3153 83.4208 12.5 81.4583 12.5 79.1667V20.8333C12.5 18.5417 13.3153 16.5792 14.9458 14.9458C16.5792 13.3153 18.5417 12.5 20.8333 12.5H50H79.1667C81.4583 12.5 83.4208 13.3153 85.0542 14.9458C86.6847 16.5792 87.5 18.5417 87.5 20.8333V79.1667C87.5 81.4583 86.6847 83.4208 85.0542 85.0542C83.4208 86.6847 81.4583 87.5 79.1667 87.5H20.8333ZM20.8333 79.1667H79.1667V20.8333H20.8333V79.1667Z" fill="#333333"/>
</svg>
