<svg width="100" height="100" viewBox="0 0 100 100" fill="none" xmlns="http://www.w3.org/2000/svg">
<path d="M93.9454 24.8048C93.5099 24.3678 92.9924 24.021 92.4226 23.7844C91.8528 23.5479 91.242 23.4261 90.625 23.4261C90.0081 23.4261 89.3972 23.5479 88.8274 23.7844C88.2577 24.021 87.7402 24.3678 87.3047 24.8048L75 37.1094L62.8907 25.0001L75.1954 12.6954C76.076 11.8148 76.5707 10.6204 76.5707 9.37507C76.5707 8.12972 76.076 6.93536 75.1954 6.05476C74.3147 5.17416 73.1204 4.67944 71.875 4.67944C70.6297 4.67944 69.4353 5.17416 68.5547 6.05476L56.25 18.3594L47.0703 9.17976C46.1897 8.29916 44.9954 7.80444 43.75 7.80444C42.5047 7.80444 41.3103 8.29916 40.4297 9.17976C39.5491 10.0604 39.0544 11.2547 39.0544 12.5001C39.0544 13.7454 39.5491 14.9398 40.4297 15.8204L41.7969 17.1876L22.6953 36.2891C19.4846 39.5171 17.6823 43.8847 17.6823 48.4376C17.6823 52.9904 19.4846 57.3581 22.6953 60.586L27.7344 65.6251L9.17972 84.1798C8.74272 84.6152 8.39599 85.1327 8.1594 85.7025C7.92281 86.2723 7.80103 86.8831 7.80103 87.5001C7.80103 88.117 7.92281 88.7279 8.1594 89.2977C8.39599 89.8674 8.74272 90.3849 9.17972 90.8204C10.0643 91.6935 11.2572 92.183 12.5 92.183C13.7429 92.183 14.9358 91.6935 15.8203 90.8204L34.375 72.2657L39.4141 77.3048C42.647 80.506 47.0128 82.3018 51.5625 82.3018C56.1122 82.3018 60.4781 80.506 63.711 77.3048L82.8125 58.2032L84.1797 59.5704C85.0643 60.4435 86.2572 60.933 87.5 60.933C88.7429 60.933 89.9358 60.4435 90.8204 59.5704C91.2573 59.1349 91.6041 58.6174 91.8407 58.0477C92.0773 57.4779 92.199 56.867 92.199 56.2501C92.199 55.6331 92.0773 55.0223 91.8407 54.4525C91.6041 53.8827 91.2573 53.3652 90.8204 52.9298L81.6407 43.7501L93.9454 31.4454C94.3823 31.0099 94.7291 30.4924 94.9657 29.9227C95.2023 29.3529 95.324 28.742 95.324 28.1251C95.324 27.5081 95.2023 26.8973 94.9657 26.3275C94.7291 25.7577 94.3823 25.2402 93.9454 24.8048ZM57.0704 70.6641C56.3481 71.3893 55.4898 71.9647 54.5446 72.3574C53.5994 72.75 52.586 72.9521 51.5625 72.9521C50.5391 72.9521 49.5256 72.75 48.5805 72.3574C47.6353 71.9647 46.777 71.3893 46.0547 70.6641L29.336 53.9454C28.6108 53.2231 28.0354 52.3648 27.6427 51.4196C27.2501 50.4745 27.048 49.4611 27.048 48.4376C27.048 47.4141 27.2501 46.4007 27.6427 45.4555C28.0354 44.5103 28.6108 43.652 29.336 42.9298L48.4375 23.8282L76.1719 51.5626L57.0704 70.6641Z" fill="black"/>
</svg>
