<svg width="100" height="100" viewBox="0 0 100 100" fill="none" xmlns="http://www.w3.org/2000/svg">
<path d="M92.8125 48.9453L64.1407 34.6094V18.75C64.1407 15.0204 62.6591 11.4435 60.0218 8.80631C57.3846 6.16908 53.8078 4.6875 50.0782 4.6875C46.3485 4.6875 42.7717 6.16908 40.1345 8.80631C37.4972 11.4435 36.0157 15.0204 36.0157 18.75V34.6094L7.26565 48.9453C6.49425 49.3389 5.84582 49.937 5.39116 50.674C4.93651 51.4111 4.6931 52.259 4.68753 53.125V65.625C4.68506 66.3215 4.83784 67.0098 5.13475 67.6398C5.43166 68.2699 5.86523 68.8258 6.40396 69.2673C6.94268 69.7087 7.57301 70.0246 8.24911 70.1919C8.92522 70.3592 9.63011 70.3737 10.3125 70.2344L35.9375 65.0781V69.9219L31.0547 74.8047C30.187 75.6932 29.697 76.8831 29.6875 78.125V90.625C29.6891 91.3918 29.8787 92.1464 30.2398 92.8229C30.6009 93.4993 31.1224 94.0768 31.7586 94.5048C32.3948 94.9328 33.1263 95.1982 33.8889 95.2777C34.6515 95.3573 35.422 95.2485 36.1328 94.9609L50 89.4141L63.8672 94.9609C64.4251 95.1901 65.0219 95.3095 65.625 95.3125C66.5612 95.316 67.4755 95.0294 68.2422 94.4922C68.8789 94.0678 69.4011 93.4928 69.7622 92.8182C70.1234 92.1435 70.3124 91.3902 70.3125 90.625V78.125C70.3199 77.5138 70.2024 76.9076 69.9673 76.3434C69.7322 75.7792 69.3845 75.2689 68.9453 74.8438L64.1407 69.9609V65.0781L89.8047 70.2344C90.4813 70.3716 91.1801 70.3551 91.8494 70.186C92.5188 70.017 93.1416 69.6998 93.6719 69.2578C94.2098 68.8176 94.6431 68.2633 94.9404 67.6349C95.2376 67.0066 95.3914 66.3201 95.3907 65.625V53.125C95.394 52.2571 95.1542 51.4056 94.6986 50.6669C94.243 49.9282 93.5896 49.3319 92.8125 48.9453ZM86.0157 59.9219L60.3907 54.7656C59.7082 54.6263 59.0033 54.6408 58.3272 54.8081C57.6511 54.9754 57.0208 55.2913 56.4821 55.7327C55.9434 56.1742 55.5098 56.7301 55.2129 57.3602C54.916 57.9902 54.7632 58.6785 54.7657 59.375V71.875C54.7687 73.1067 55.2604 74.2868 56.1328 75.1562L60.9375 80.0391V83.7109L51.7578 80.0391C51.2009 79.807 50.6034 79.6875 50 79.6875C49.3966 79.6875 48.7992 79.807 48.2422 80.0391L39.0625 83.7109V80.0781L43.9453 75.1953C44.8131 74.3068 45.303 73.1169 45.3125 71.875V59.375C45.315 58.6785 45.1622 57.9902 44.8653 57.3602C44.5684 56.7301 44.1348 56.1742 43.5961 55.7327C43.0574 55.2913 42.427 54.9754 41.7509 54.8081C41.0748 54.6408 40.3699 54.6263 39.6875 54.7656L14.0625 59.9219V56.0156L42.7344 41.6797C43.5115 41.2931 44.1648 40.6968 44.6205 39.9581C45.0761 39.2194 45.3158 38.3679 45.3125 37.5V18.75C45.3125 17.5068 45.8064 16.3145 46.6855 15.4354C47.5645 14.5564 48.7568 14.0625 50 14.0625C51.2432 14.0625 52.4355 14.5564 53.3146 15.4354C54.1937 16.3145 54.6875 17.5068 54.6875 18.75V37.5C54.6878 38.372 54.9334 39.2264 55.3962 39.9655C55.859 40.7046 56.5203 41.2986 57.3047 41.6797L85.9375 56.0156L86.0157 59.9219Z" fill="black"/>
</svg>
