<svg width="100" height="100" viewBox="0 0 100 100" fill="none" xmlns="http://www.w3.org/2000/svg">
<path d="M50 91.6667C41.1805 91.6667 33.4208 88.5945 26.7208 82.45C20.018 76.3028 16.6666 67.9861 16.6666 57.5C16.6666 50.9028 19.1666 43.75 24.1666 36.0417C29.1666 28.3334 36.7361 20 46.875 11.0417C47.2916 10.6945 47.7777 10.4167 48.3333 10.2084C48.8888 10 49.4444 9.89587 50 9.89587C50.5555 9.89587 51.1111 10 51.6666 10.2084C52.2222 10.4167 52.7083 10.6945 53.125 11.0417C63.2638 20 70.8333 28.3334 75.8333 36.0417C80.8333 43.75 83.3333 50.9028 83.3333 57.5C83.3333 67.9861 79.9819 76.3028 73.2791 82.45C66.5791 88.5945 58.8194 91.6667 50 91.6667ZM50 83.3334C57.0138 83.3334 62.9333 80.9375 67.7583 76.1459C72.5861 71.3542 75 65.1389 75 57.5C75 52.5695 72.9513 46.9264 68.8541 40.5709C64.7569 34.2181 58.4722 27.1528 50 19.375C41.5277 27.1528 35.243 34.2181 31.1458 40.5709C27.0486 46.9264 25 52.5695 25 57.5C25 65.1389 27.4125 71.3542 32.2375 76.1459C37.0652 80.9375 42.9861 83.3334 50 83.3334ZM51.1458 79.1667C51.9791 79.0973 52.6916 78.7681 53.2833 78.1792C53.8722 77.5875 54.1666 76.875 54.1666 76.0417C54.1666 75.0695 53.8541 74.2889 53.2291 73.7C52.6041 73.1084 51.8055 72.8473 50.8333 72.9167C47.9861 73.125 44.9652 72.3445 41.7708 70.575C38.5763 68.8028 36.5625 65.5903 35.7291 60.9375C35.5902 60.1736 35.225 59.5486 34.6333 59.0625C34.0444 58.5764 33.368 58.3334 32.6041 58.3334C31.6319 58.3334 30.8333 58.6973 30.2083 59.425C29.5833 60.1556 29.375 61.007 29.5833 61.9792C30.7638 68.2986 33.5416 72.8125 37.9166 75.5209C42.2916 78.2292 46.7013 79.4445 51.1458 79.1667Z" fill="black"/>
</svg>
