<svg width="100" height="100" viewBox="0 0 100 100" fill="none" xmlns="http://www.w3.org/2000/svg">
<path d="M87.5 68.75C87.5 70.3334 86.625 71.7084 85.2917 72.4167L52.375 90.9167C51.7083 91.4167 50.875 91.6667 50 91.6667C49.125 91.6667 48.2917 91.4167 47.625 90.9167L14.7083 72.4167C14.0403 72.0657 13.4813 71.5383 13.092 70.8919C12.7027 70.2454 12.4979 69.5047 12.5 68.75V31.25C12.5 29.6667 13.375 28.2917 14.7083 27.5834L47.625 9.08337C48.2917 8.58337 49.125 8.33337 50 8.33337C50.875 8.33337 51.7083 8.58337 52.375 9.08337L85.2917 27.5834C86.625 28.2917 87.5 29.6667 87.5 31.25V68.75ZM50 17.2917L42.125 21.75L66.6667 35.875L74.8333 31.25L50 17.2917ZM25.1667 31.25L50 45.2084L58.1667 40.625L33.6667 26.4584L25.1667 31.25ZM20.8333 66.2917L45.8333 80.375V52.4167L20.8333 38.375V66.2917ZM79.1667 66.2917V38.375L54.1667 52.4167V80.375L79.1667 66.2917Z" fill="black"/>
</svg>
