<svg width="100" height="100" viewBox="0 0 100 100" fill="none" xmlns="http://www.w3.org/2000/svg">
<path d="M91.6667 70.8417C91.6648 76.5399 89.7171 82.0665 86.146 86.5068C82.5748 90.9471 77.5944 94.0346 72.0292 95.2584L69.3709 87.2834C71.8052 86.8824 74.1202 85.9465 76.1492 84.5429C78.1781 83.1394 79.8705 81.3032 81.1042 79.1667H70.8334C68.6232 79.1667 66.5036 78.2887 64.9408 76.7259C63.378 75.1631 62.5 73.0435 62.5 70.8334V54.1667C62.5 51.9566 63.378 49.837 64.9408 48.2742C66.5036 46.7113 68.6232 45.8334 70.8334 45.8334H83.075C82.0582 37.7788 78.1372 30.372 72.0476 25.0029C65.9581 19.6337 58.1186 16.6712 50 16.6712C41.8815 16.6712 34.042 19.6337 27.9524 25.0029C21.8629 30.372 17.9418 37.7788 16.925 45.8334H29.1667C31.3768 45.8334 33.4965 46.7113 35.0593 48.2742C36.6221 49.837 37.5 51.9566 37.5 54.1667V70.8334C37.5 73.0435 36.6221 75.1631 35.0593 76.7259C33.4965 78.2887 31.3768 79.1667 29.1667 79.1667H16.6667C14.4566 79.1667 12.337 78.2887 10.7742 76.7259C9.21135 75.1631 8.33337 73.0435 8.33337 70.8334V50C8.33337 26.9875 26.9875 8.33337 50 8.33337C73.0125 8.33337 91.6667 26.9875 91.6667 50V70.8417ZM83.3334 70.8334V54.1667H70.8334V70.8334H83.3334ZM16.6667 54.1667V70.8334H29.1667V54.1667H16.6667Z" fill="black"/>
</svg>
