<svg width="100" height="100" viewBox="0 0 100 100" fill="none" xmlns="http://www.w3.org/2000/svg">
<path d="M56.2502 31.25C56.2502 30.4212 56.5794 29.6264 57.1654 29.0403C57.7515 28.4543 58.5464 28.125 59.3752 28.125H96.8752C97.704 28.125 98.4988 28.4543 99.0849 29.0403C99.6709 29.6264 100 30.4212 100 31.25C100 32.0788 99.6709 32.8737 99.0849 33.4597C98.4988 34.0458 97.704 34.375 96.8752 34.375H59.3752C58.5464 34.375 57.7515 34.0458 57.1654 33.4597C56.5794 32.8737 56.2502 32.0788 56.2502 31.25ZM96.8752 46.875H59.3752C58.5464 46.875 57.7515 47.2043 57.1654 47.7903C56.5794 48.3764 56.2502 49.1712 56.2502 50C56.2502 50.8288 56.5794 51.6237 57.1654 52.2097C57.7515 52.7958 58.5464 53.125 59.3752 53.125H96.8752C97.704 53.125 98.4988 52.7958 99.0849 52.2097C99.6709 51.6237 100 50.8288 100 50C100 49.1712 99.6709 48.3764 99.0849 47.7903C98.4988 47.2043 97.704 46.875 96.8752 46.875ZM96.8752 65.625H68.7502C67.9214 65.625 67.1265 65.9543 66.5404 66.5403C65.9544 67.1264 65.6252 67.9212 65.6252 68.75C65.6252 69.5788 65.9544 70.3737 66.5404 70.9597C67.1265 71.5458 67.9214 71.875 68.7502 71.875H96.8752C97.704 71.875 98.4988 71.5458 99.0849 70.9597C99.6709 70.3737 100 69.5788 100 68.75C100 67.9212 99.6709 67.1264 99.0849 66.5403C98.4988 65.9543 97.704 65.625 96.8752 65.625ZM58.4767 74.2188C58.5823 74.6138 58.6083 75.0259 58.5533 75.4311C58.4982 75.8363 58.3632 76.2265 58.156 76.579C57.9489 76.9316 57.6737 77.2394 57.3465 77.4847C57.0193 77.73 56.6467 77.9078 56.2502 78.0078L55.4689 78.125C54.7742 78.123 54.0994 77.8925 53.5488 77.4689C52.9981 77.0453 52.6021 76.4522 52.422 75.7813C51.2038 71.0932 48.464 66.942 44.6324 63.9788C40.8008 61.0155 36.0939 59.4078 31.2502 59.4078C26.4064 59.4078 21.6996 61.0155 17.8679 63.9788C14.0363 66.942 11.2965 71.0932 10.0783 75.7813C9.97389 76.1793 9.79192 76.5527 9.54282 76.8802C9.29372 77.2077 8.98239 77.4828 8.62671 77.6897C8.27103 77.8966 7.87799 78.0312 7.47016 78.0858C7.06233 78.1404 6.64773 78.1139 6.25016 78.0078C5.85367 77.9078 5.481 77.73 5.15382 77.4847C4.82664 77.2394 4.55147 76.9316 4.3443 76.579C4.13713 76.2265 4.0021 75.8363 3.94704 75.4311C3.89199 75.0259 3.91801 74.6138 4.0236 74.2188C5.08238 70.1047 7.05935 66.284 9.80611 63.0433C12.5529 59.8027 15.998 57.2264 19.883 55.5078C16.7633 53.1297 14.4681 49.8329 13.3205 46.0818C12.1729 42.3307 12.2307 38.3141 13.4857 34.5975C14.7408 30.881 17.1299 27.6516 20.3167 25.3642C23.5034 23.0768 27.3274 21.8464 31.2502 21.8464C35.1729 21.8464 38.9969 23.0768 42.1837 25.3642C45.3704 27.6516 47.7596 30.881 49.0146 34.5975C50.2697 38.3141 50.3274 42.3307 49.1798 46.0818C48.0322 49.8329 45.737 53.1297 42.6173 55.5078C46.5023 57.2264 49.9475 59.8027 52.6942 63.0433C55.441 66.284 57.4179 70.1047 58.4767 74.2188ZM31.2502 53.125C33.7224 53.125 36.1392 52.3919 38.1948 51.0184C40.2504 49.6449 41.8526 47.6926 42.7987 45.4086C43.7448 43.1245 43.9923 40.6111 43.51 38.1864C43.0277 35.7616 41.8372 33.5343 40.089 31.7862C38.3408 30.038 36.1136 28.8475 33.6888 28.3652C31.264 27.8829 28.7507 28.1304 26.4666 29.0765C24.1825 30.0226 22.2303 31.6248 20.8568 33.6804C19.4833 35.736 18.7502 38.1527 18.7502 40.625C18.7605 43.9371 20.0807 47.1105 22.4227 49.4525C24.7647 51.7944 27.9381 53.1147 31.2502 53.125Z" fill="white"/>
</svg>
